<svg width="370" height="6" viewBox="0 0 370 6" fill="none" xmlns="http://www.w3.org/2000/svg">
<path fill-rule="evenodd" clip-rule="evenodd" d="M110.794 4.17081C111.069 4.36407 111.191 4.44971 111.378 4.57941C109.028 4.5035 106.726 4.42912 104.395 4.35419C104.582 4.47375 104.722 4.56301 104.9 4.67611C102.572 4.59491 100.332 4.51671 97.983 4.4344C98.137 4.54165 98.2616 4.62756 98.4001 4.72322C97.0089 4.71137 95.5922 4.7269 94.2127 4.67827C93.2514 4.64416 92.3526 4.5132 91.409 4.44042C90.404 4.363 90.5279 4.75087 89.1499 4.72921C87.8374 4.70809 86.5351 4.63992 84.9791 4.54263C85.206 4.71163 85.3141 4.79403 85.4996 4.93376C83.1412 4.85755 80.8486 4.7836 78.5273 4.70873C78.7122 4.82114 78.8642 4.91194 79.0125 5.00199C76.1188 4.93416 73.2308 4.86685 70.1534 4.79526C70.3845 4.95124 70.5125 5.03826 70.6438 5.12638C67.7486 5.06821 64.8331 5.00942 61.7847 4.94853C62.0308 5.12782 62.1453 5.2116 62.2367 5.27746C59.2757 5.21462 56.3868 5.15335 53.3798 5.08923C53.6441 5.24737 53.795 5.33805 53.9407 5.42542C51.0417 5.35877 48.1529 5.29302 45.0819 5.2228C45.3168 5.37832 45.4508 5.46586 45.6055 5.56828C42.7483 5.49925 39.8915 5.42985 36.9187 5.35823C36.9914 5.52041 37.0388 5.62585 37.1167 5.80231C34.8546 5.61522 32.7346 5.31681 30.3599 5.53836C30.4898 5.61621 30.6399 5.70724 30.8192 5.8155C28.5784 5.7112 26.3611 5.60899 23.9771 5.49841C24.0629 5.69753 24.1068 5.80307 24.1893 5.99661C21.0723 5.60766 17.9204 5.54935 14.7072 5.69205C14.8514 5.78257 14.9953 5.87222 15.202 6C14.6942 5.98113 14.2009 5.99935 13.9359 5.94766C12.4383 5.65355 11.0274 5.61268 9.04457 5.81837C8.82904 5.84061 8.46105 5.81471 8.23984 5.78156C7.91253 5.73164 7.60513 5.59122 7.36977 5.60112C6.29228 5.64853 5.13216 5.75157 4.38498 5.48616C3.60932 5.21089 3.62415 4.84352 2.83489 4.55281C2.65678 4.48733 3.15181 4.31156 3.28351 4.2229C2.2298 3.99967 1.33896 3.81087 0 3.52724C2.7994 3.509 4.93004 3.49535 7.29653 3.48037C6.19603 3.1859 5.25268 3.229 4.09019 3.28225C3.28965 3.31858 2.33339 3.1459 1.50419 3.07196C1.91141 2.48064 3.75656 2.60331 4.85145 2.60339C12.2176 2.60461 19.497 2.36151 26.7908 2.18026C34.6291 1.98537 42.4091 1.6243 50.2577 1.49051C55.4974 1.40088 60.695 1.21236 65.9209 1.15442C71.8144 1.08935 77.6665 0.881167 83.5571 0.868274C87.3628 0.85967 91.1075 0.70421 94.9373 0.705916C98.5717 0.70765 102.284 0.662295 105.909 0.587595C109.834 0.506319 113.759 0.457192 117.681 0.432938C125.01 0.387389 132.336 0.311841 139.673 0.286037C144.495 0.269381 149.351 0.20159 154.189 0.157C161.255 0.0920441 168.324 0.114714 175.396 0.0258699C181.536 -0.0513258 187.715 0.07209 193.874 0.0387571C198.987 0.0114851 204.094 0.040833 209.203 0.0408432C218.38 0.0400381 227.556 0.0376661 236.732 0.0636866C242.625 0.0806583 248.532 0.150174 254.422 0.117344C263.227 0.068733 272.004 0.225134 280.786 0.232687C286.036 0.236656 291.272 0.244641 296.52 0.299584C302.937 0.367441 309.385 0.296891 315.79 0.398622C325.367 0.550217 334.952 0.559891 344.533 0.627776C351.742 0.679172 358.942 0.816795 366.16 0.655572C367.153 0.633586 368.2 0.763131 369.13 0.817201C369.202 1.51228 366.163 1.06199 365.565 1.57771C366.342 1.57796 367.011 1.55585 367.642 1.58448C368.307 1.61456 368.935 1.69331 370 1.78829C369.326 1.97858 368.865 2.10903 368.401 2.24041C368.84 2.38606 369.929 2.45921 369.295 2.78147C368.979 2.94273 367.196 2.98216 368.402 3.29656C368.301 3.314 368.209 3.34118 368.1 3.34685C367.322 3.38478 366.545 3.4359 365.76 3.44998C361.711 3.52305 357.646 3.67311 353.615 3.63114C348.097 3.57402 342.601 3.66846 337.099 3.63996C328.836 3.59698 320.574 3.54639 312.311 3.52127C307.073 3.5053 301.832 3.52858 296.563 3.53427C296.744 3.644 296.894 3.7354 297.044 3.82678C296.908 3.84195 296.763 3.87408 296.654 3.86768C296.462 3.8566 290.943 3.5787 290.565 3.57303C288.369 3.53936 286.171 3.5047 283.859 3.46844C284.113 3.63581 284.246 3.72371 284.583 3.9448C283.755 3.82664 283.323 3.77553 282.943 3.70749C282.525 3.63279 282.155 3.47093 281.763 3.47097C279.177 3.46924 276.592 3.50087 273.99 3.52249C274.162 3.63698 274.293 3.7239 274.629 3.94862C273.793 3.82605 273.366 3.77292 272.984 3.70475C272.567 3.63054 272.195 3.47096 271.802 3.47086C269.219 3.46941 266.638 3.50058 264.039 3.52125C264.21 3.63731 264.339 3.72446 264.676 3.95208C263.83 3.82497 263.408 3.77067 263.027 3.70214C262.612 3.6277 262.234 3.47121 261.839 3.47099C259.262 3.4692 256.684 3.50028 254.087 3.52073C254.259 3.63849 254.385 3.72452 254.724 3.95603C253.866 3.82461 253.313 3.78501 253.098 3.69633C252.699 3.53234 252.364 3.48539 251.491 3.4909C246.648 3.52192 241.8 3.51158 236.862 3.51514C237.047 3.63287 237.189 3.7219 237.338 3.81607C235.767 4.09147 235.595 3.20335 233.599 3.55952C232.8 3.70208 231.061 3.52742 229.57 3.49327C229.785 3.64334 229.909 3.72876 230.027 3.81124C229.835 3.83436 229.632 3.86829 229.41 3.88057C229.321 3.88566 225.828 3.5522 225.682 3.55219C222.144 3.5534 218.609 3.55439 215.005 3.55576C215.228 3.69151 215.378 3.7829 215.532 3.87638C212.444 3.60906 210.957 3.55778 207.831 3.6119C207.985 3.70489 208.133 3.79578 208.284 3.88561C208.042 3.89946 207.707 3.94761 207.545 3.92417C203.659 3.36138 199.363 3.70759 195.277 3.60133C193.124 3.54546 190.901 3.65046 188.704 3.68264C188.869 3.79116 188.999 3.87844 189.138 3.97048C188.804 3.97646 188.464 4.00995 188.292 3.98161C185.467 3.51874 182.143 3.61334 179.193 3.67744C175.388 3.76049 171.554 3.56783 167.787 3.82985C167.883 3.89284 168.019 3.98099 168.287 4.15571L162.732 3.6603C162.378 3.80148 162.17 3.88421 161.908 3.98927C160.493 4.19682 158.829 3.44518 157.115 4.0895C156.359 4.02209 155.49 3.9283 154.581 3.87001C154.125 3.8411 153.249 3.84068 153.164 3.89002C152.795 4.10541 152.345 4.09056 151.53 4.04631C150.403 3.98439 149.089 3.57127 148.039 4.09678C147.982 4.12504 147.287 4.08256 146.897 4.06363C145.71 4.0065 144.411 3.64641 143.441 4.14442C142.245 4.06585 141.05 3.98691 139.891 3.9104C139.393 4.00579 138.86 4.18916 138.414 4.17698C137.328 4.14809 136.28 4.02942 135.219 3.94655C134.174 4.4623 132.675 4.05869 131.508 4.03227C131.288 4.07854 131.125 4.0969 131.126 4.11491C131.129 4.14647 131.247 4.17686 131.287 4.21012C131.354 4.26531 131.396 4.3219 131.533 4.46626L126.418 4.01004C126.69 4.20339 126.81 4.2877 126.934 4.37638C125.797 4.66482 124.629 4.02042 123.359 4.38966C122.092 4.7576 120.932 4.31227 119.693 4.29974C118.376 4.28682 117.059 4.27668 115.549 4.26354C115.662 4.23869 115.506 4.25807 115.509 4.27585C115.513 4.30753 115.629 4.3378 115.669 4.37057C115.734 4.42514 115.774 4.48196 115.904 4.62651L110.794 4.17081Z" fill="#FFC41F"/>
</svg>
